# xmcd CD database file
#
# Track frame offsets:
#	150
#	24485
#	56935
#	82487
#	106642
#	139627
#
# Disc length: 2213 seconds
#
# Revision: 0
# Processed by: cddbd v1.5.1PL0 Copyright (c) Steve Scherf et al.
# Submitted via: CDex 1.51
#
DISCID=4d08a306
DTITLE=Curtis Fuller - Blues-ette Vol.2
DYEAR=1993
DGENRE=Blues
TTITLE0=Five Spot After Dark
TTITLE1=Undecided
TTITLE2=Blues-ette
TTITLE3=Minor Vamp
TTITLE4=Love Your Spell Is Everywhere
TTITLE5=Twelve-inch
EXTD=YEAR: 1993
EXTT0=
EXTT1=
EXTT2=
EXTT3=
EXTT4=
EXTT5=
PLAYORDER=
